<svg id="Layer_1" data-name="Layer 1" xmlns="http://www.w3.org/2000/svg" viewBox="0 0 1464 1512">
<defs><style>.cls-1{fill:#53bc7d;}.cls-2{fill:#3fa285;}</style></defs>
<path class="cls-1" d="M112.31,101.68C94.83,159.92,79.2,234.82,79.18,271.78c0,323.18,260.37,377.57,239.31,580.33C308.32,950.63,251.9,1049,79.18,1013.56v104.27s142.57,99.48,292.52,52.66C522.76,1123.31,595.11,940,488.91,765.6c-2.22-4.06-4.58-7.94-7-11.93a3.6,3.6,0,0,1-.44-.74h0c-75-121.09-239.23-239.12-276.11-358.25-34.57-111.56,0-222.38,33-293Z"/>
<path class="cls-1" d="M1324.77,1393.1c17.47-58.24,33.1-133.14,33.12-170.1,0-323.18-260.36-377.57-239.3-580.33,10.16-98.52,66.59-196.88,239.3-161.45V377s-142.56-99.48-292.51-52.66C914.32,371.47,842,554.76,948.17,729.18c2.21,4.06,4.58,7.94,7,11.93a4.11,4.11,0,0,1,.44.74h0c75,121.09,239.23,239.12,276.11,358.25,34.57,111.56,0,222.38-33,293Z"/><path class="cls-2" d="M785.21,594.14c-3.25,2.29-6.28,4.36-8.05,5.55C726.39,635,668.81,651.57,613.31,651.42a297.7,297.7,0,0,1-60.9-6.36c8.06,9,15.82,18.48,23.14,28.38l.81.82L579,678.1c1.77,2.66,3.91,5.84,6.2,9.39a284.7,284.7,0,0,1,50.92,162.66,292.91,292.91,0,0,1-6.43,61A388.78,388.78,0,0,1,662.31,885h-.15l.74-.52a3.93,3.93,0,0,1-.59.52c2.66-2,6.06-4.36,10.35-7C723,843.28,780,827,835,827.17a296,296,0,0,1,60.68,6.35A383.68,383.68,0,0,1,870.21,802l-.75-1.11-.51-.74c-1.92-2.88-4-5.84-5.1-7.69-35.48-50.77-52.11-108.42-52-164.07a295.18,295.18,0,0,1,6.29-60.53,380.34,380.34,0,0,1-31.49,25.35l-.07-.07-1.33,1Z"/><path class="cls-2" d="M1367.65,131.72c-58.23-17.44-133.13-33.11-170.07-33.11C874.4,98.61,820,359,617.23,337.92,518.71,327.76,420.35,271.33,455.8,98.61H351.52S252,241.18,298.85,391.13C346,542.19,529.32,614.54,703.73,508.34c4.07-2.22,7.95-4.58,11.94-7a5,5,0,0,1,.74-.44h0c121.09-75,239.13-239.23,358.23-276.11,111.58-34.59,222.4,0,293,33Z"/>
<path class="cls-2" d="M78.65,1351.46c58.24,17.44,133.14,33.11,170.08,33.11,323.18,0,377.59-260.37,580.35-239.31,98.52,10.16,196.88,66.59,161.43,239.31h104.28s99.49-142.57,52.67-292.52C1100.28,941,917,868.64,742.58,974.84c-4.07,2.22-8,4.58-11.94,7a4.22,4.22,0,0,1-.74.44h0c-121.09,75-239.13,239.23-358.23,276.11-111.58,34.59-222.4,0-293-33Z"/>
</svg>